# xmcd CD database file
#
# Track frame offsets:
#	150
#	14700
#	28500
#	43550
#	57700
#	72575
#	86450
#	101375
#	114900
#	130650
#	146400
#	161550
#	181050
#	197150
#	212850
#
# Disc length: 3063 seconds
#
# Revision: 1
# Processed by: cddbd v1.5.2PL0 Copyright (c) Steve Scherf et al.
# Submitted via: CDex 1.51
#
DISCID=d10bf50f
DTITLE=Pupo - Vario
DYEAR=1900
DGENRE=Blues
TTITLE0=Vario
TTITLE1=Vario
TTITLE2=Vario
TTITLE3=Vario
TTITLE4=Vario
TTITLE5=Vario
TTITLE6=Vario
TTITLE7=Vario
TTITLE8=Vario
TTITLE9=Vario
TTITLE10=Vario
TTITLE11=Vario
TTITLE12=Vario
TTITLE13=Vario
TTITLE14=Vario
EXTD=Pupo, Domenica insieme
EXTT0=
EXTT1=
EXTT2=
EXTT3=
EXTT4=
EXTT5=
EXTT6=
EXTT7=
EXTT8=
EXTT9=
EXTT10=
EXTT11=
EXTT12=
EXTT13=
EXTT14=
PLAYORDER=
